<mxfile host="app.diagrams.net" modified="2024-05-04T01:16:55.284Z" agent="Mozilla/5.0 (Windows NT 10.0; Win64; x64) AppleWebKit/537.36 (KHTML, like Gecko) Chrome/125.0.0.0 Safari/537.36 Edg/125.0.0.0" version="23.1.7" etag="pY0yFiFDXaNdXnbS6PvO" type="github">
  <diagram name="Page-1" id="WbEXpncuDKXQO1yYznca">
    <mxGraphModel>
      <root>
        <mxCell id="0" />
        <mxCell id="1" parent="0" />
      </root>
    </mxGraphModel>
  </diagram>
</mxfile>
